<svg xmlns="http://www.w3.org/2000/svg" width="512" height="512">
    <path d="M279 0c6.661 4.919 9.409 12.578 11.66 20.25 1.362 4.569 3.122 8.143 5.777 12.125C299.952 37.657 302.173 42.941 304 49l.598 1.895c.564 2.953.442 5.851.465 8.855.247 7.132 2.47 12.418 6.055 18.53 2.79 4.872 3.625 9.123 3.883 14.72l9-2.187 2.543-.596c8.253-2.079 14.145-5.891 20.52-11.467 3.948-3.192 6.657-5.156 11.938-4.75 7.625 3.268 11.012 11.455 14.188 18.688 4.134 11.278 5.1 22.081 5.188 34l.042 3.418c-.038 6.83-.891 12.803-2.872 19.347-1.028 4.8 1.154 8.056 3.419 12.157 7.912 18.273 3.608 39.527-2.965 57.391l-1 3c1.106 1.889 1.106 1.889 2.75 3.75 8.164 10.451 9.513 24.249 8.027 37.189-1.295 9.825-2.851 21.025-9.294 28.92-6.71 8.419-8.831 18.191-11.608 28.391l-2.272 8.173-1.386 5.055c-1.495 5.283-3.334 8.603-7.217 12.522-2.832 1.328-2.832 1.328-5.812 2.25-7.037 2.712-9.907 6.759-14.187 12.75l-5.25 6.25-2.832 3.332-18.027 21.027-3.078 3.578-1.523 1.771c-2.99 3.489-5.909 7.024-8.789 10.604-3.826 4.721-7.895 9.158-12.048 13.589-4.021 4.314-7.74 8.825-11.433 13.423-2.305 2.769-4.774 5.27-7.359 7.773-1.704 1.696-3.277 3.457-4.848 5.277-6.987 8.089-14.26 15.935-21.891 23.419-1.817 1.849-3.501 3.755-5.18 5.729-11.666 13.408-29.666 33.096-48.031 35.691-5.918.279-11.176.056-16.004-3.633-6.097-6.543-8.093-14.598-9.729-23.125l-.519-2.659c-1.658-8.723-2.839-17.473-3.866-26.289l-.307-2.572c-3.174-26.609-5.598-53.303-8.136-79.978l-4.826-49.051-.635-6.228-1.811-16.789-.528-4.919c-.884-8.664-2.067-15.377-7.812-22.324-3.422-4.218-3.198-9.521-2.825-14.721 1.358-10.29 4.835-20.514 7.908-30.401 1.265-4.174 2.002-8.209 2.629-12.523 2.161-12.638 8.041-23.706 17.75-32.25 3.826-2.615 7.609-4.536 12-6 1.042-1.736 1.042-1.736 1.797-3.902l.956-2.435.998-2.601c2.979-7.412 6.152-13.845 11.25-20.062l1.418-1.902c5.929-7.59 14.533-12.958 23.582-16.098h2l.563-3.625C212.832 113.639 221.644 103.122 234 95c6.827-4 6.827-4 11-4l.438-2.375C246 86 246 86 247 84l.239-5.713c.346-11.089 1.03-24.094 7.323-33.599 2.885-4.508 3.272-9.17 3.938-14.375C259.853 19.748 261.636 9.184 269 1c3.326-1.663 6.447-1.867 10-1z" fill="#351415"/>
    <path d="M141 288c3.446 1.547 6.164 3.605 9.125 5.938C191.505 325.546 242.996 342.021 294 349l2.15.306c7.597.973 15.265 1.043 22.912 1.257l4.357.131L334 351c-1.903 4.08-4.608 7.206-7.562 10.563l-3.289 3.789-1.634 1.884c-2.03 2.365-3.994 4.778-5.952 7.202-4.103 5.053-8.351 9.967-12.625 14.875L292.5 401.5c-8.593 10.19-17.304 20.265-26.309 30.094l-5.629 6.344c-3.758 4.324-7.641 8.531-11.523 12.742l-4.919 5.443c-6.652 7.494-13.614 14.655-20.683 21.752l-1.87 1.878c-27.654 27.667-27.654 27.667-41.693 27.685-3.629-.113-5.6-.3-8.875-1.937-7.611-9.514-8.968-21.315-10.687-33l-.386-2.608c-5.186-35.492-8.024-71.351-11.34-107.056l-.329-3.546-.322-3.465-.314-3.383-.61-6.589c-1.552-16.782-3.403-33.495-5.723-50.189-.279-2.579-.341-5.072-.288-7.664z" fill="#fef6da"/>
    <path d="M178.875 183.625l2.215-.043c10.387.092 19.856 3.977 29.348 7.855l3.249 1.311 20.692 8.734C296.647 229.827 296.647 229.827 363 228l2.492-1.164c3.041-1.014 4.513-.963 7.508.164 8.174 8.968 8.38 20.901 8.184 32.371-.648 12.807-4.005 27.209-13.184 36.629l-1.598 1.672c-4.871 4.325-10.337 5.48-16.53 6.867-7.172 1.648-11.73 3.699-16.248 9.524-2.058 4.099-2.43 8.489-3.062 12.984-.805 4.228-2.343 7.278-4.562 10.953-2.314 1.157-3.861 1.232-6.437 1.313l-2.371.113C315 339 315 339 313.328 337.555c-1.951-3.753-2.433-7.6-3.141-11.742-1.628-8.379-3.191-15.3-10.516-20.449-5.344-2.992-9.602-4.259-15.672-3.363-6.265 2.548-9.07 5.985-12 12l-2 5.188c-1.642 4.245-3.164 7.136-7 9.813-4.106.672-6.376.269-10.187-1.375-5.93-5.535-6.948-12.886-8.25-20.625-1.552-9.091-3.858-16.368-11.171-22.407-4.729-3.151-10.05-5.178-15.282-7.343l-10.762-4.586-2.166-.936C149.762 247.617 149.762 247.617 141 227c-1.622-11.124 4.669-23.26 11-32 7.901-8.955 15.301-11.203 26.875-11.375z" fill="#9749f1"/>
    <path d="M223.82 133.684c22.288-1.193 43.833 5.849 64.545 13.267 11.7 4.179 23.487 7.442 35.635 10.05l3.59.801c13.373 2.53 29.222 2.733 42.41-.801 8.173 8.736 8.477 21.282 8.285 32.66-.316 7.048-2.228 13.631-4.285 20.34l-.805 3.051c-1.562 5.021-3.195 7.435-7.883 9.949-8.06 3.588-16.217 4.324-24.937 4.25l-2.676.023c-12.847-.037-25.269-2.31-37.637-5.648l-1.925-.518c-25.318-6.881-49.358-17.262-73.336-27.788-21.575-9.631-21.575-9.631-44.614-13.881l-2.1-.131L173 179c1.551-13.1 10.591-25.985 20.574-34.301 9.388-6.576 18.881-10.074 30.246-11.016z" fill="#57b2f0"/>
    <path d="M147 203l7.184 7.289c23.103 23.944 55.861 43.831 87.791 53.079 4.393 1.417 6.438 2.73 8.842 6.745l1.061 2.107c1.127 2.148 1.127 2.148 4.435 3.28l2.688.5v-5c6.533.784 12.741 2.4 19.09 4.096 12.196 3.158 24.21 4.349 36.785 4.342l2.176.001c19.853-.064 37.027-4.297 55.043-12.604 2.579-1.129 5.217-2.006 7.906-2.834.526 12.034-4.545 23.954-12.621 32.77-5.463 5.185-11.708 6.736-18.941 8.105-6.323 1.36-10.844 4.071-14.812 9.188-2.058 4.099-2.43 8.489-3.062 12.984-.805 4.228-2.343 7.278-4.562 10.953-2.314 1.157-3.861 1.232-6.437 1.313l-2.371.113C315 339 315 339 313.328 337.555c-1.951-3.753-2.433-7.6-3.141-11.742-1.628-8.379-3.191-15.3-10.516-20.449-5.344-2.992-9.602-4.259-15.672-3.363-6.265 2.548-9.07 5.985-12 12l-2 5.188c-1.642 4.245-3.164 7.136-7 9.813-4.106.672-6.376.269-10.187-1.375-5.93-5.535-6.948-12.886-8.25-20.625-1.552-9.091-3.858-16.368-11.171-22.407-4.729-3.151-10.05-5.178-15.282-7.343l-10.762-4.586-2.166-.936C149.762 247.617 149.762 247.617 141 227c-1.17-8.023 2.216-16.994 6-24z" fill="#843fdb"/>
    <path d="M139 232l2.195 2.207c22.33 22.236 50.794 35.935 79.699 47.824l2.223.927 5.738 2.312c5.601 3.082 8.787 7.888 11.145 13.73 1.001 4.122 1.674 8.299 2.373 12.48 1.253 6.909 2.995 13.016 8.189 17.957 4.186 2.683 7.537 2.9 12.438 2.563 4.155-1.836 6.547-4.202 9-8 .654-1.781 1.276-3.575 1.875-5.375 1.899-5.575 4.654-10.889 10.125-13.625 5.932-.614 9.161.177 14.141 3.418 4.418 3.759 6.349 7.168 7.484 12.832l.734 3.453 1.094 5.969c.676 3.732 1.429 6.142 3.484 9.391 4.511 2.854 8.854 2.675 14.063 1.938 2.427-.877 3.639-1.486 5.125-3.602 1.618-3.742 2.916-7.394 3.805-11.375l.48-2.13c.304-1.402.586-2.809.844-4.22.92-4.323 2.298-7.019 5.909-9.659 3.481-1.923 7.181-2.836 11.024-3.765l4.793-1.234 2.122-.522c1.652-.429 3.279-.953 4.898-1.493-1.656 6.989-3.498 13.915-5.5 20.813l-.61 2.135c-3.933 13.394-3.933 13.394-8.865 16.22-9.664 3.976-19.911 4.349-30.213 4.271l-2.089-.007c-13.818-.074-27.168-1.728-40.724-4.43l-2.487-.485c-5.207-1.035-10.359-2.246-15.513-3.515l-2.593-.616C218.399 329.564 182.3 314.31 152 291l-3.051-2.34c-7.468-5.912-15.283-12.161-17.949-21.66.187-11.616 4.052-24.142 8-35z" fill="#fcdc82"/>
    <path d="M274 413c2 2 2 2 2 5l2 1-1.174 1.25-18.064 19.738c-3.174 3.624-6.457 7.15-9.723 10.691l-4.919 5.443c-6.652 7.494-13.614 14.655-20.683 21.752l-1.87 1.878c-27.654 27.667-27.654 27.667-41.693 27.685-3.629-.113-5.6-.3-8.875-1.937-5.957-7.446-8.129-16.191-9.473-25.457l-.388-2.61-.799-5.469-1.218-8.189C157.51 452.854 156.428 442.032 156 431c4.893-.638 9.554-1.119 14.5-1.062l3.156.027L176 430l3.5 9.375 1.012 2.695.957 2.578.889 2.38C183 449 183 449 183 451h3l-1.812-5.937-1.02-3.34-2.741-8.455-.812-2.429L179 429l16.388-2.563 5.572-.873 8.02-1.251 2.507-.398c8.15-1.254 8.15-1.254 11.513-.915 1.813 2 1.813 2 3 4l2-6 17.242-3.418 5.863-1.164 8.437-1.668 2.639-.53c8.315-1.623 8.315-1.623 11.818-1.22z" fill="#fee59a"/>
    <path d="M357.023 78.902c7.859 4.365 11.172 13.079 13.631 21.282 4.342 16.188 5.909 34.451-.155 50.44-1.252 2.163-2.087 3.164-4.316 4.305-2.759.701-5.338.914-8.184 1.07l-1.966.124c-27.791 1.535-55.194-7.69-81.005-17.015-15.807-5.669-30.98-8.462-47.778-8.234l-3.883.027L214 131c.7-4.791 1.914-8.235 4.25-12.5l1.766-3.281c3.706-6.012 7.821-10.208 13.609-14.094l1.734-1.219C239.61 97 239.61 97 243 97l.332 2.633c1.205 8.755 2.318 15.252 9.52 20.894 7.343 5.036 14.799 6.113 23.523 5.911l3.063-.044c10.987-.278 21.21-1.609 29.562-9.393 4.5-5.73 5.11-12.975 6-20l2.57-.227c14.034-1.573 24.646-6.238 34.906-15.895C355 79 355 79 357.023 78.902z" fill="#f87cd7"/>
    <path d="M181 159l1 2 1.967-.07c7.39-.147 14.283.691 21.533 2.07l3.501.656C225.02 166.807 240.55 171.785 256 177l-1 3h-2l1 3c3.024 1.512 5.662 1.173 9 1l2-1.062c5.438-2.549 13.883 1.339 19.313 2.938l2.686.777 5.33 1.571a157.09 157.09 0 0 0 5.484 1.485l2.707.71 2.437.602c3.374 1.617 4.075 4.444 5.266 7.82 1.048 2.912 2.226 4.41 4.777 6.16 3.647.808 3.647.808 7 1l-1.875-3.812-1.055-2.145c-1.136-2.255-1.136-2.255-3.07-5.043l5.25.438 2.953.246c2.797.316 2.797.316 4.671.819 2.349.55 4.524.691 6.934.779l2.764.113 2.865.105 5.621.219 2.51.092c2.432.189 2.432.189 5.069.773 5.4.951 10.863-4.028 15.176-6.979 4.233-3.106 7.693-5.697 9.063-10.98L377 178h1c.545 11.38-.663 21.113-4 32l-.805 3.051c-1.562 5.021-3.195 7.435-7.883 9.949-8.06 3.588-16.217 4.324-24.937 4.25l-2.676.023c-12.847-.037-25.269-2.31-37.637-5.648l-1.925-.518c-25.318-6.881-49.358-17.262-73.336-27.788-21.575-9.631-21.575-9.631-44.614-13.881l-2.1-.131L173 179c.547-5.006 2.241-8.972 4.563-13.375l.998-1.941L181 159z" fill="#449cdd"/>
    <path d="M281.947 346.854c12.903 2.279 25.641 3.677 38.741 3.958l2.062.045L334 351c-1.903 4.08-4.608 7.206-7.562 10.563l-3.289 3.789-1.634 1.884c-2.03 2.365-3.994 4.778-5.952 7.202-4.137 5.098-8.413 10.068-12.763 14.985-2.549 2.897-5.002 5.777-7.209 8.945-5.182 7.242-5.182 7.242-9.809 8.527-2.985.262-5.796.323-8.781.105l-3.437-8.437-.986-2.373C270.498 390.983 268.7 385.682 269 380l2-3-5-1-4-11.75-1.156-3.367-1.094-3.242-1.016-2.983C258 352 258 352 258 348c8.199-3.725 15.355-2.675 23.947-1.146z" fill="#fee9ab"/>
    <path d="M301 73c3 1 3 1 4.098 2.855l.965 2.332.973 2.293L308 83l1.098 2.707c1.183 4.316 1.27 8.338 1.277 12.793l.074 2.512c.033 6.992-2.102 10.584-7.012 15.613-7.98 6.014-16.28 6.766-26 6.875l-2.937.056c-8.059-.069-14.503-2.123-21.375-6.306-4.197-4.444-6.345-8.977-6.625-15.125.219-5.442 1.867-10.369 4.5-15.125l2-1 3 1c14.38 1.138 29.306-.935 41-10a143 143 0 0 0 4-4z" fill="#f4efed"/>
    <path d="M357.023 78.902c7.966 4.424 11.12 13.476 13.836 21.699 1.388 5.459 1.809 10.339-.988 15.469-4.896 7.231-11.479 10.131-19.871 11.93-2.858.249-5.691.235-8.559.195l-2.391-.009-7.488-.062-5.107-.027L314 128l-1-3-10-1c2-4 2-4 4.438-6.375 5.803-5.944 6.471-12.687 7.563-20.625l2.57-.227c14.034-1.573 24.646-6.238 34.906-15.895C355 79 355 79 357.023 78.902z" fill="#fb99e3"/>
    <path d="M288 32c4.598 1.533 5.851 4.814 8 9 4.132 8.997 5.542 18.235 4 28-3.904 7.659-14.076 11.103-21.75 13.813-8.308 2.314-17.193 2.252-25.25-.812-.433-11.402-.517-21.32 4-32l1.297-3.324C260 44 260 44 262.496 43.406l2.941.094c7.109-.242 12.695-2.506 18.563-6.5 2.304-2.576 2.304-2.576 4-5z" fill="#f4efed"/>
    <path d="M254 350l.988 3.184 1.324 4.254.688 2.214 3.812 11.661C262 375 262 375 262 378l-34.75 7.313-2.684.519-2.488.47-2.175.411C218 387 218 387 215 387l-4-12.25-1.156-3.512-1.094-3.379-1.016-3.11C207 362 207 362 207 358l3.349-.627 12.294-2.309 5.322-.998 7.648-1.437 2.406-.448c11.932-2.257 11.932-2.257 15.981-2.181z" fill="#ffdf85"/>
    <path d="M264 382l4 10.75 1.156 3.078 1.094 2.969 1.016 2.729C272 404 272 404 272 408c-8.846 2.833-17.781 4.897-26.875 6.75l-3.24.675c-5.744 1.143-11.03 1.829-16.885 1.575l-4-11.875-1.156-3.418-1.094-3.262-1.016-3.015C217 393 217 393 217 391l2.548-.503 9.556-1.896 4.099-.812c8.079-1.596 16.119-3.282 24.12-5.246C260 382 260 382 264 382z" fill="#ffdf84"/>
    <path d="M203 360a78.03 78.03 0 0 1 2.5 7.5l1.293 4.387.623 2.146 2.397 7.28C211 385 211 385 211 388c-8.609 1.781-17.192 3.257-25.937 4.188l-2.325.253c-5.267.528-10.444.627-15.737.559l-2.875-7.5-.816-2.109C161.014 377.347 159 371.532 159 365l3.333-.443 12.255-1.638 5.302-.707 7.625-1.02 2.39-.316c4.114-.533 4.114-.533 8.148-1.474C200 359 200 359 203 360zm10 32l4 12.375 1.156 3.563 1.094 3.398 1.016 3.142C221 417 221 417 221 419l-16.388 2.563-5.572.873-8.02 1.251-2.507.398c-3.876.597-7.577 1.082-11.513.915l-4-11.812-1.156-3.393-1.094-3.252-1.016-2.999C169 401 169 401 169 398c7.195-1.549 14.385-2.656 21.688-3.562l5.949-.754 2.806-.352 6.514-.921C209 392 209 392 213 392zm-19-63l.77 2.711 1.043 3.664.546 1.921 4.126 13.716C201 353 201 353 201 356l-16.388 2.136-5.572.728-8.02 1.042-2.507.331c-3.865.496-7.605.9-11.513.762-3.087-8.49-5.01-17.204-7-26l2.456-.335 9.22-1.264 5.873-.803 21.95-3.235C192 329 192 329 194 329z" fill="#ffdf85"/>
    <path d="M141 288c3.446 1.547 6.164 3.605 9.125 5.938C163.076 303.859 177.52 311.576 192 319v6c-8.827 1.738-17.67 3.321-26.562 4.688l-2.521.398c-4.699.707-9.166 1.049-13.917.915-1.665-3.924-2.872-7.891-4-12h-1l-1.5-12.687-.434-3.631-.41-3.506-.381-3.221c-.249-2.675-.327-5.27-.275-7.954z" fill="#fddd84"/>
    <path d="M274 413c2 2 2 2 2 5l2 1-1.174 1.25L260 438.5l-1.59 1.781c-1.468 1.711-1.468 1.711-2.664 3.75-1.473 2.216-2.485 3.539-4.746 4.969-4.723.587-9.267.408-14 0l-3.684-8.816-2.352-5.586c-1.179-2.858-1.965-5.24-1.965-8.348 1.404-3.159 3.139-4.312 6-6.25 2.631-.799 5.067-1.416 7.75-1.922l2.229-.454 4.649-.917 7.09-1.415 4.531-.902 2.128-.426c3.57-.684 6.988-1.324 10.622-.965z" fill="#fdd155"/>
    <path d="M235 455l3 8-9.595 10.199-3.246 3.472-4.737 4.982-1.403 1.575c-5.435 5.445-8.12 4.031-17.019 4.772l-11-26c3.725-1.863 6.045-2.467 10.086-3.035l3.57-.514 3.719-.514 7.273-1.035 3.255-.453a215.61 215.61 0 0 0 6.251-1.001c3.313-.521 6.497-.514 9.845-.448z" fill="#fed155"/>
    <path d="M305 371l1.563 4.188.879 2.355c.678 2.984.563 4.561-.441 7.457-2.004 2.543-2.004 2.543-4.562 5.188-3.502 3.651-6.467 7.262-9.312 11.438-2.371 3.083-3.494 4.207-7.289 5.219-2.989.252-5.844.326-8.836.156l-3.437-8.437-.986-2.373c-2.181-5.463-3.159-10.319-3.576-16.189l2.742-.773 10.016-2.953 3.145-.937 6.469-1.945 3.137-.93 2.833-.85c2.651-.609 4.951-.726 7.66-.611zm-118 91c4.217 8.808 7.654 17.837 11 27-11.013 2.006-21.808 3.521-33 4a23.81 23.81 0 0 1-2.852-8.371l-.391-2.49-.383-2.576-.406-2.564c-.619-4.03-1.154-7.907-.969-11.998l9.563-1.5 2.713-.434c4.975-.765 9.692-1.232 14.725-1.066z" fill="#fed156"/>
    <path d="M217.688 330l6.633 2.527 3.36 1.273c5.061 1.829 10.198 3.325 15.382 4.762l2.739.76L252 341l-1 5-14.349 2.936-4.867.998c-8.906 1.837-17.678 3.584-26.783 4.066l-3.5-11.312-1.012-3.248-.957-3.115-.889-2.872C198 331 198 331 198 328c7.634-2.919 12.32-.984 19.688 2z" fill="#fede84"/>
    <path d="M301 73c3 1 3 1 4.098 2.855l.965 2.332.973 2.293L308 83l1.098 2.707c1.183 4.316 1.27 8.338 1.277 12.793l.074 2.512c.033 6.992-2.102 10.584-7.012 15.613-5.58 4.387-13.351 7.141-20.437 6.375l1.242-1.793 1.633-2.395 1.617-2.355c4.427-7.214 4.863-15.559 2.973-23.785-1.453-3.652-3.68-5.991-6.465-8.672l2.449-1.137C294.545 79.02 294.545 79.02 301 73z" fill="#ddd8d6"/>
    <path d="M176 430l3.5 9.375 1.012 2.695.957 2.578.889 2.38C183 449 183 449 183 451l3 1h-2l1 6-6.875.938-2.059.281a212.52 212.52 0 0 1-14.308 1.438L160 461l-1 2-1.5-13.187-.434-3.775-.41-3.643-.381-3.348c-.245-2.706-.328-5.332-.275-8.046 6.697-1.03 13.231-1.102 20-1z" fill="#fede84"/>
    <path d="M224 429c3.167 3.633 4.571 7.663 6.188 12.125l.826 2.207C233 448.719 233 448.719 233 451l-16.388 2.563-5.572.873-8.02 1.251-2.507.398c-3.876.597-7.577 1.082-11.513.915l-2-7 1.566-.743C200.992 443.315 212.618 436.755 224 429z" fill="#ffd256"/>
    <path d="M273 4c2.572.208 3.73.741 5.598 2.531 4.519 6.073 6.885 11.652 7.902 19.156-.641 4.248-2.291 6.611-5.5 9.313-5.628 3.918-11.255 4.724-18 5-.804-12.19 1.889-23.408 8-34l2-2z" fill="#f2ecea"/>
    <path d="M210 204c5.568.57 10.211 2.004 15.375 4.125l2.5 1.012c8.987 3.703 17.837 7.721 26.688 11.738l2.247 1.019 6.381 2.911 1.948.886c2.79 1.284 5.296 2.6 7.86 4.309l-1 4c-20.21.293-43.541-10.417-59-23l-4-4 1-3z" fill="#ddc4fa"/>
    <path d="M284 348l2 2-1.01 2.08-4.49 9.295-1.59 3.273-1.504 3.125-1.396 2.888c-1.142 2.22-1.142 2.22-1.01 4.338l-9 1-4-11.75-1.156-3.367-1.094-3.242-1.016-2.983C258 352 258 352 258 348c8.888-4.166 16.898-2.605 26 0z" fill="#fede83"/>
    <path d="M288 32c4.598 1.533 5.851 4.814 8 9 4.123 8.978 5.57 18.253 4 28-1.789 3.278-3.865 5.034-7 7l-1.918 1.293C288.244 79.066 286.383 80 283 80l.621-2.047.816-2.703.809-2.672L286 70l.578-1.91c1.59-7.876 1.311-16.207-2.422-23.379C282.73 42.6 281.25 41.205 279 40l2.813-1.75c2.786-1.966 4.375-3.43 6.188-6.25z" fill="#dcd8d6"/>
    <path d="M153 398h12l4 11.813 1.156 3.393 1.094 3.252 1.016 2.999C173 422 173 422 173 425c-5.808 1.506-10.998 2.218-17 2l-1 2c-2.3-20.81-2.3-20.81-2-31z" fill="#fddd84"/>
    <path d="M284 348l19 2-4 1 .875 2.484L301 356.75l1.125 3.234C303 363 303 363 303 367l-12.812 3.563-3.682 1.037-3.525.967-3.253.905C277 374 277 374 274 373l1.026-2.08 4.537-9.295 1.615-3.273 1.514-3.125 1.412-2.888L285 350l-1-2z" fill="#fccf56"/>
    <path d="M292 161c6.62-.22 12.767.62 19.281 1.75l3.194.538L324.5 165l6.828 1.156L348 169l1 4c-11.402 5.793-28.405 2.156-40.099-1.379-5.946-1.941-11.688-4.145-16.901-7.621v-3z" fill="#c9e6fa"/>
    <path d="M268 379l2 1 .25 3.563c.473 5.73 2.565 10.733 4.667 16.028C277 404.841 277 404.841 277 407l11-2c-1.776 3.552-3.399 5.824-6 8.75l-2.125 2.422C278 418 278 418 276 418l-2-4c-8.932.651-17.513 2.458-26.25 4.359l-3.242.68-2.917.631c-2.563.326-4.166.15-6.59-.67l3-2-1-2 2.244-.427 10.194-1.948 3.529-.672c6.37-1.22 12.711-2.506 19.033-3.953l-.69-1.908-2.997-8.654-1.088-3.002c-2.79-8.314-2.79-8.314-.932-12.65L268 379z" fill="#fee8a8"/>
    <path d="M264 388h2l3 7.75.867 2.211.82 2.148.762 1.968C272 404 272 404 272 408c-20.796 6.173-20.796 6.173-29 6l2.438-2.812c6.054-7.07 12.013-14.207 17.371-21.824L264 388z" fill="#ffd257"/>
    <path d="M200 494l1 4c-7.804 6.264-14.007 9.642-24.254 9.348-3.713-.47-5.383-1.451-7.746-4.348l-3-6 11.938-1.5 3.385-.434c6.282-.774 12.348-1.227 18.678-1.066z" fill="#fbcf54"/>
    <path d="M303 351h31c-3.72 7.44-3.72 7.44-6.753 8.767-2.192.718-4.391 1.334-6.622 1.92l-2.289.643c-3.754 1.04-7.5 1.975-11.336 2.67-1.63-4.656-2.792-9.168-4-14z" fill="#f6ca53"/>
    <path d="M243 97l2 17h-23c3.407-6.815 12.757-17 21-17z" fill="#f997e1"/>
    <path d="M150 365l5 1 8 28-10 1-1 3c-1.232-11.035-2.365-21.881-2-33z" fill="#fbdc87"/>
    <path d="M352 96c-.659 2.885-1.475 4.598-3.844 6.41-4.874 3.029-7.968 4.72-13.781 4.652l-3.039-.027L329 107v-4l5.688-2.937 3.199-1.652c4.815-2.181 8.863-2.532 14.113-2.41z" fill="#fddcf6"/>
    <path d="M307 193c4.424.506 6.781 1.95 10 5 2.118 2.995 3 4.307 3 8-3.062.5-3.062.5-7 0-2.908-2.268-5.267-4.734-7-8 .313-2.77.313-2.77 1-5z" fill="#f6db88"/>
    <path d="M364 188c-.232 4.024-.392 6.321-3.125 9.375-3.341 1.888-6.073 2.327-9.875 2.625-.75-1.687-.75-1.687-1-4 3.453-5.445 7.423-8.564 14-8z" fill="#f6dc88"/>
    <path d="M250 261c3.466.963 4.934 1.923 7.313 4.688 1.912 3.754 2.02 6.157 1.688 10.313-2.187.375-2.187.375-5 0-2.924-2.599-4.716-4.251-5.348-8.145-.027-2.168-.027-2.168.348-5.855l1-1z" fill="#f9d788"/>
    <path d="M309 255c3.363 0 5.42.503 7.992 2.707 3.643 3.943 3.643 3.943 5.008 6.293-.309 2.262-.309 2.262-1 4-4.868-.453-7.486-1.583-11-5-1.662-2.418-2.11-3.343-1.625-6.25L309 255z" fill="#f9d789"/>
    <path d="M222 147c3.362.182 4.78.803 7.313 3.063 2.274 3.958 1.993 6.425 1.688 10.938l-4 1c-4.534-4.65-5.779-7.485-6-14l1-1z" fill="#f3db8b"/>
    <path d="M353 127c3.797.393 5.542 2.203 8 5 1.607 3.215 1.057 6.436 1 10-3.319-.277-4.764-.784-7.25-3.062-2.281-3.828-2.528-6.502-2.75-10.937l1-1z" fill="#fed989"/>
    <path d="M335 286l1 5c-2.349 2.505-4.091 3.906-7.559 4.266L321 295c.063-2.25.063-2.25 1-5 4.476-3.247 7.362-4.55 13-4z" fill="#fad987"/>
    <path d="M141 288c3.782 1.68 6.969 4.078 10.25 6.563l1.68 1.248c1.377 1.036 2.727 2.11 4.07 3.189v1l-14 1c-2.286-8.429-2.286-8.429-2-13z" fill="#f5d680"/>
    <path d="M327 118c.313 2.75.313 2.75 0 6-2.163 2.568-3.722 3.854-7.113 4.242-1.964.007-3.927-.109-5.887-.242.218-3.809.994-4.994 3.688-7.812 3.568-2.356 5.145-2.684 9.313-2.187z" fill="#fedc86"/>
    <path d="M176 204l1 3c-2.076 3.767-3.763 6.716-8 8-2.75.125-2.75.125-5 0l-1-4 3.688-3.5 2.074-1.969c2.645-1.809 4.1-1.839 7.238-1.531z" fill="#f6d28d"/>
    <path d="M217 232l1 4c-3.708 3.554-7.037 3.764-12 4l-3-2c.188-1.875.188-1.875 1-4 4.177-2.531 8.274-2.16 13-2z" fill="#f7d48b"/>
    <path d="M262.125 177.813l2.633.02C267 178 267 178 269 179c-.931 2.328-1.654 3.744-3.687 5.25-3.213 1.042-5.958.994-9.312.75l-3-2v-3c3.163-1.861 5.472-2.247 9.125-2.187z" fill="#f4db89"/>
    <path d="M182 452c3 4 3 4 3 6l-6.875.938-2.059.281a212.52 212.52 0 0 1-14.308 1.438L160 461l-1 2v-3l23-8z" fill="#fdd25c"/>
    <path d="M367 243c-.502 3.713-1.025 5.663-4 8-2.262.512-2.262.512-4.687.688l-2.449.199L354 252l-1-4c8.077-5.74 8.077-5.74 14-5z" fill="#f9d68a"/>
    <path d="M323 366l-4.312 4.813-2.426 2.707L311 379l-2-10 4.75-2.062 2.672-1.16c2.731-.823 3.947-.755 6.578.223z" fill="#f9ce57"/>
    <path d="M152 299.75l3.813-.078L159 300l2 3c-6.068 1.229-11.799 2.276-18 2v-4c2.969-1.484 5.699-1.209 9-1.25z" fill="#fcf4d8"/>
    <path d="M282 234l4.25-.125 2.391-.07c2.567.212 4.151.909 6.359 2.195l-1 4c-7.304.365-7.304.365-10.5-1.312C282 237 282 237 282 234z" fill="#dbc0fa"/>
    <path d="M283 16c2.483 4.965 3.572 7.375 3 13l-5 5 2-18z" fill="#d3cccb"/>
    <path d="M147 342c1.951 2.926 2.715 5.02 3.625 8.375l.789 2.836c.565 2.69.695 5.051.586 7.789h-3l-1-7.25-.289-2.066c-.445-3.277-.711-6.367-.711-9.684z" fill="#f2d485"/>
    <path d="M239 453h7c-3.75 5.875-3.75 5.875-6 7l-1-7z" fill="#f2c95a"/>
    <path d="M235 421l-6 4-1-4c3.01-.934 3.867-1.044 7 0z" fill="#ffdf84"/>
</svg>